<?xml version="1.0" encoding="UTF-8" standalone="no"?>
<!-- Created with Inkscape (http://www.inkscape.org/) -->

<svg
   xmlns:dc="http://purl.org/dc/elements/1.1/"
   xmlns:cc="http://creativecommons.org/ns#"
   xmlns:rdf="http://www.w3.org/1999/02/22-rdf-syntax-ns#"
   xmlns:svg="http://www.w3.org/2000/svg"
   xmlns="http://www.w3.org/2000/svg"
   xmlns:sodipodi="http://sodipodi.sourceforge.net/DTD/sodipodi-0.dtd"
   xmlns:inkscape="http://www.inkscape.org/namespaces/inkscape"
   width="1303.8125"
   height="1535.5312"
   id="svg4193"
   version="1.1"
   inkscape:version="0.48.5 r10040"
   sodipodi:docname="logo_small.svg"
   inkscape:export-filename="/data/www/sebkha/squelettes/assets/logo_small.png"
   inkscape:export-xdpi="9.9399996"
   inkscape:export-ydpi="9.9399996">
  <defs
     id="defs4195" />
  <sodipodi:namedview
     id="base"
     pagecolor="#ffffff"
     bordercolor="#666666"
     borderopacity="1.0"
     inkscape:pageopacity="0.0"
     inkscape:pageshadow="2"
     inkscape:zoom="0.5"
     inkscape:cx="612.10379"
     inkscape:cy="730.36757"
     inkscape:document-units="px"
     inkscape:current-layer="layer1"
     showgrid="false"
     fit-margin-top="0"
     fit-margin-left="0"
     fit-margin-right="0"
     fit-margin-bottom="0"
     inkscape:window-width="1280"
     inkscape:window-height="933"
     inkscape:window-x="0"
     inkscape:window-y="31"
     inkscape:window-maximized="1"
     inkscape:snap-bbox="false"
     inkscape:object-paths="false" />
  <metadata
     id="metadata4198">
    <rdf:RDF>
      <cc:Work
         rdf:about="">
        <dc:format>image/svg+xml</dc:format>
        <dc:type
           rdf:resource="http://purl.org/dc/dcmitype/StillImage" />
        <dc:title></dc:title>
      </cc:Work>
    </rdf:RDF>
  </metadata>
  <g
     inkscape:label="Calque 1"
     inkscape:groupmode="layer"
     id="layer1"
     transform="translate(508.16373,888.44048)">
    <path
       style="fill:#2d2d2d;fill-opacity:1;stroke:none;display:inline"
       d="M 651.3125 42 L 1.65625 418.375 L 1.65625 1171.125 L 651.3125 1497.5312 L 1300.9375 1171.125 L 1300.9375 418.375 L 651.3125 42 z M 538 501.0625 L 754 501.0625 L 754 571.53125 L 538 571.53125 L 538 501.0625 z "
       transform="translate(-508.16373,-888.44048)"
       id="path5193" />
    <rect
       style="opacity:0;fill:#dddddd;fill-opacity:1;fill-rule:nonzero;stroke:none"
       id="rect5124"
       width="645.71429"
       height="565.71429"
       x="-507.52533"
       y="-886.31104" />
    <path
       style="fill:#333333;fill-opacity:1;stroke:none;display:inline"
       d="M 651.90625 0 L 0 376.375 L 0 1129.125 L 651.90625 1455.5312 L 1303.8125 1129.125 L 1303.8125 376.375 L 651.90625 0 z M 538 501.0625 L 754 501.0625 L 754 571.53125 L 538 571.53125 L 538 501.0625 z "
       transform="translate(-508.16373,-888.44048)"
       id="path23391" />
    <path
       style="opacity:0.98999999;fill:#111111;fill-opacity:0.54924245;stroke:none;display:inline"
       d="M 642.9375 207.65625 L 635.8125 217.90625 L 627.46875 212.6875 L 622.59375 220.09375 L 607.9375 211.375 L 598.5625 223.65625 L 597.78125 234.09375 L 597.71875 270.96875 L 595.75 300.75 L 569.78125 317.40625 L 555.96875 381.75 L 554.28125 406.0625 L 532.1875 397.03125 L 402.625 500.375 L 443 702.8125 L 582.65625 796.46875 L 593.125 823.25 C 595.4306 825.3115 570.84765 833.94135 566.21875 829.15625 L 397.875 746.96875 L 321.4375 687.375 L 136.875 734.25 L 193.53125 782.0625 L 188.6875 778.46875 L 191.6875 1039.375 L 651.90625 1455.5312 L 1303.8125 1129.125 C 1303.8025 928.51563 1303.3774 727.64015 1303.8125 527.03125 C 1303.8126 527.03125 658.9543 211.70505 642.9375 207.65625 z M 556.40625 498.28125 L 755.40625 498.28125 L 755.40625 571.03125 L 754 571.03125 L 754 571.53125 L 538 571.53125 L 538 501.0625 L 556.40625 501.0625 L 556.40625 498.28125 z "
       id="path23515"
       transform="translate(-508.16373,-888.44048)" />
    <g
       transform="translate(-1558.3987,-1719.6886)"
       id="g4373"
       style="opacity:0.98999999;fill:#e6e6e6;fill-opacity:1;display:inline">
      <g
         style="fill:#e6e6e6;fill-opacity:1"
         transform="translate(-263.47218,-587.86611)"
         id="g23326">
        <path
           id="path4098"
           d="m 1584.4374,2087.9409 c -43.9847,0.3242 -107.5459,8.6196 -134.9063,41.0312 -38.8097,45.9747 136.2024,38.5389 95.4375,117.0625 -25.196,49.8608 -6.5656,151.0178 6.9688,113.6563 44.712,-123.4277 138.8162,-81.3182 154.9687,-84.7813 17.8472,-6.2805 42.8946,-4.2483 62.5313,-14.625 7.8573,-4.4899 29.1678,-17.94 48.25,-19.0625 19.0821,-1.1225 94.8115,37.6215 106.6562,52.75 16.1948,20.6847 37.0313,34.8125 37.0313,34.8125 0,0 -14.5893,-113.3841 -110,-131.3437 -95.4108,-17.9597 -123.4688,-40.4063 -123.4688,-40.4063 -37.7289,-25.8754 -43.4041,-40.3293 -69.1875,-54.25 -12.0381,-6.4995 -25.6892,-11.3973 -38.875,-13.0937 -8.2424,-1.0605 -20.7447,-1.8581 -35.4062,-1.75 z m 64.7187,40.5 c 0,0 9.971,5.5726 17.375,13.1562 6.8522,7.0183 30.375,18.4688 30.375,18.4688 0,0 -29.0817,-4.1938 -37.5,-8.375 -8.6427,-4.2928 -10.25,-23.25 -10.25,-23.25 z"
           style="fill:#e6e6e6;fill-opacity:1;stroke:none;display:inline"
           inkscape:connector-curvature="0" />
        <path
           sodipodi:nodetypes="csacsssac"
           inkscape:connector-curvature="0"
           id="path4319"
           d="m 2483.5723,2174.7057 c 0,0 -91,30 -87,58 4,28 19.8959,92.9382 10.8284,138.272 -3.0036,15.017 -20.9289,40.8995 -20.9289,40.8995 0,0 3.2426,55.4853 -4.7574,67.4853 -2.6668,4.0002 16.0359,1.6713 33.3355,-13.283 34.1593,-29.5284 68.6985,-89.0411 76.5224,-118.3738 4.9254,-18.4658 -1.4408,-61.3288 -2.8878,-91.9647 -1.2769,-27.0353 -5.1122,-81.0353 -5.1122,-81.0353 z"
           style="fill:#e6e6e6;fill-opacity:1;stroke:none;display:inline" />
        <path
           sodipodi:nodetypes="cccccccccccccccccccccccccccccccccccccccccccccccccccccccccacscc"
           id="path4321"
           d="m 1667.7127,2360.3086 c -28.166,42.8337 74.0585,53.229 80.7047,58.7598 15.3526,8.2945 7.951,6.7422 26.4696,0.3892 5.2462,-1.7924 9.8653,-5.1603 13.2215,-8.458 6.9413,-6.8123 14.3403,-13.2291 20.4849,-20.8898 8.4754,-10.5501 14.298,-23.6453 24.7904,-32.8368 6.6786,-5.8427 21.7393,-6.9143 32.0623,-9.9442 9.1533,-3.8271 18.2897,-7.6351 27.4432,-11.4495 7.5345,-3.2275 15.8911,-4.1141 23.7986,-7.2141 13.1707,-5.173 20.3324,-24.3087 39.6562,-24.1301 0.5509,0.2488 1.1103,0.4975 1.6612,0.7463 11.7977,16.1314 1.9155,37.761 -12.5605,47.0163 -3.8562,2.4685 -13.3741,3.9484 -15.5353,7.463 -0.661,0.4975 -1.3222,0.995 -1.9832,1.4925 0,0.089 -0.9396,7.2306 -0.9396,7.3199 8.094,-1.448 13.23,-3.8811 22.1462,-5.2142 11.1365,-1.6839 21.951,-1.6619 33.3843,-2.995 10.984,-1.2821 21.1969,-2.679 30.7402,-4.2354 14.0266,-2.2771 24.3326,-1.0588 26.443,8.7067 0.8729,4.0632 -1.7714,6.9144 -3.3054,9.2043 -4.7716,7.1121 -11.6875,11.2135 -23.4682,12.9293 -4.297,0.1723 -8.5941,0.3381 -12.891,0.4976 -7.4922,1.7413 -14.9845,3.489 -22.4766,5.2304 -5.9667,1.0843 -12.1791,0.6633 -17.1881,2.494 -6.3904,3.1382 -12.7808,2.2892 -19.1711,5.4403 -6.2125,2.5641 -17.4013,1.4003 -19.5539,6.8858 -0.2203,0.089 -0.4408,0.1595 -0.6611,0.2488 5.2123,2.7683 26.5956,-4.0504 35.037,-2.9916 20.4935,2.577 37.478,5.2177 55.5221,8.7068 4.4156,0.1594 8.8229,0.338 13.23,0.4975 5.7293,0.995 11.4586,1.9965 17.188,2.9915 13.1537,2.341 24.5107,2.7046 27.4347,12.6806 3.7121,12.6933 -13.0436,19.8947 -30.4096,17.6686 -6.848,-0.8866 -13.9081,-1.8306 -19.5017,-2.9915 -11.4587,-0.4976 -22.9258,-0.9951 -34.3761,-1.4798 -7.8227,-0.6698 -15.6455,-1.3332 -23.4682,-2.0029 -15.4167,2.2899 -29.2823,5.5557 -48.9197,5.4792 -0.5508,0.9121 -8.6267,10.0813 -9.1691,11.0062 6.1701,-0.421 12.3402,-0.8356 18.5187,-1.2438 20.4171,2.494 37.4525,6.1808 58.1663,9.453 14.9335,2.3537 34.2658,-1.2566 47.9281,2.4813 6.3056,1.7286 9.6364,8.0625 6.6107,14.4283 -5.0683,10.7032 -15.781,9.1724 -33.0454,10.7032 -3.6359,0.089 -7.2718,0.1594 -10.9078,0.2488 -20.0018,-2.3538 -55.0473,-6.015 -74.7016,-3.2404 -4.4157,0.6379 -23.7564,0.5869 -25.7821,2.2453 -0.9576,0.8356 2.4906,6.6369 4.8722,7.9062 4.6275,1.0843 9.2551,2.1559 13.8826,3.2403 3.1867,0.7463 7.9668,0.6825 11.8994,1.4798 8.8566,1.8052 18.5017,4.7329 28.4262,6.4806 12.0521,2.0922 25.46,-0.2232 34.3761,3.9738 5.3817,2.5388 9.7975,10.0144 4.6276,15.4234 -4.8395,5.0582 -21.4766,9.4339 -35.0372,6.4679 -11.4162,-2.494 -24.2649,-1.6838 -37.0202,-3.9738 -8.2974,-1.4927 -27.0873,-5.2305 -38.012,-3.2403 -14.6539,3.3168 -29.3077,6.64 -43.9616,9.9569 -7.0515,0.5868 -14.103,1.1609 -21.146,1.7413 -29.0365,4.1972 -91.5048,-8.3023 -135.7658,-17.489 -35.5084,-7.3701 -45.43,-13.4553 -103.077,-29.9706 -23.9192,-28.6656 -41.5035,-78.1624 -4.2972,-126.6794 36.24,-47.2569 15.5216,-35.6935 59.7336,-29.1531 25.9679,9.2035 3.7983,-2.0243 37.8727,21.7386 z"
           clip-rule="evenodd"
           inkscape:connector-curvature="0"
           style="fill:#e6e6e6;fill-opacity:1;fill-rule:evenodd;stroke:none;display:inline" />
        <path
           style="fill:#e6e6e6;fill-opacity:1;stroke:none;display:inline"
           d="m 1440.8703,2170.7057 c 0,0 91,30 87,58 -4,28 -19.8959,92.9382 -10.8284,138.272 3.0036,15.017 20.9289,40.8995 20.9289,40.8995 0,0 -3.2426,55.4853 4.7574,67.4853 2.6668,4.0002 -16.0359,1.6713 -33.3355,-13.283 -34.1593,-29.5284 -68.6985,-89.0411 -76.5224,-118.3738 -4.9254,-18.4658 1.4408,-61.3288 2.8878,-91.9647 1.2769,-27.0353 5.1122,-81.0353 5.1122,-81.0353 z"
           id="path4323"
           inkscape:connector-curvature="0"
           sodipodi:nodetypes="csacsssac" />
        <path
           style="fill:#e6e6e6;fill-opacity:1;fill-rule:evenodd;stroke:none;display:inline"
           inkscape:connector-curvature="0"
           clip-rule="evenodd"
           d="m 2256.4819,2360.3086 c 28.166,42.8337 -74.0585,53.229 -80.7047,58.7598 -15.3526,8.2945 -7.951,6.7422 -26.4696,0.3892 -5.2463,-1.7924 -9.8653,-5.1603 -13.2216,-8.458 -6.9413,-6.8123 -14.3403,-13.2291 -20.4849,-20.8898 -8.4753,-10.5501 -14.2979,-23.6453 -24.7904,-32.8368 -6.6786,-5.8427 -21.7392,-6.9143 -32.0622,-9.9442 -9.1533,-3.8271 -18.2898,-7.6351 -27.4432,-11.4495 -7.5346,-3.2275 -15.8912,-4.1141 -23.7987,-7.2141 -13.1707,-5.173 -20.3324,-24.3087 -39.6562,-24.1301 -0.5509,0.2488 -1.1102,0.4975 -1.6611,0.7463 -11.7978,16.1314 -1.9155,37.761 12.5604,47.0163 3.8562,2.4685 13.3741,3.9484 15.5353,7.463 0.6611,0.4975 1.3222,0.995 1.9833,1.4925 0,0.089 0.9395,7.2306 0.9395,7.3199 -8.0939,-1.448 -13.23,-3.8811 -22.1461,-5.2142 -11.1366,-1.6839 -21.9511,-1.6619 -33.3843,-2.995 -10.9841,-1.2821 -21.1969,-2.679 -30.7402,-4.2354 -14.0267,-2.2771 -24.3327,-1.0588 -26.4431,8.7067 -0.8728,4.0632 1.7715,6.9144 3.3055,9.2043 4.7716,7.1121 11.6874,11.2135 23.4682,12.9293 4.2969,0.1723 8.594,0.3381 12.891,0.4976 7.4921,1.7413 14.9844,3.489 22.4766,5.2304 5.9666,1.0843 12.179,0.6633 17.1881,2.494 6.3903,3.1382 12.7807,2.2892 19.1711,5.4403 6.2124,2.5641 17.4012,1.4003 19.5539,6.8858 0.2203,0.089 0.4407,0.1595 0.661,0.2488 -5.2123,2.7683 -26.5956,-4.0504 -35.037,-2.9916 -20.4934,2.577 -37.478,5.2177 -55.5221,8.7068 -4.4156,0.1594 -8.8228,0.338 -13.2299,0.4975 -5.7294,0.995 -11.4587,1.9965 -17.188,2.9915 -13.1537,2.341 -24.5107,2.7046 -27.4347,12.6806 -3.7122,12.6933 13.0435,19.8947 30.4096,17.6686 6.8479,-0.8866 13.908,-1.8306 19.5017,-2.9915 11.4586,-0.4976 22.9258,-0.9951 34.3761,-1.4798 7.8227,-0.6698 15.6454,-1.3332 23.4681,-2.0029 15.4167,2.2899 29.2823,5.5557 48.9197,5.4792 0.5509,0.9121 8.6267,10.0813 9.1691,11.0062 -6.17,-0.421 -12.3401,-0.8356 -18.5187,-1.2438 -20.417,2.494 -37.4525,6.1808 -58.1662,9.453 -14.9335,2.3537 -34.2658,-1.2566 -47.9282,2.4813 -6.3056,1.7286 -9.6364,8.0625 -6.6106,14.4283 5.0682,10.7032 15.781,9.1724 33.0453,10.7032 3.636,0.089 7.2719,0.1594 10.9078,0.2488 20.0018,-2.3538 55.0473,-6.015 74.7017,-3.2404 4.4156,0.6379 23.7564,0.5869 25.782,2.2453 0.9576,0.8356 -2.4905,6.6369 -4.8721,7.9062 -4.6276,1.0843 -9.2551,2.1559 -13.8827,3.2403 -3.1867,0.7463 -7.9668,0.6825 -11.8994,1.4798 -8.8566,1.8052 -18.5017,4.7329 -28.4262,6.4806 -12.052,2.0922 -25.4599,-0.2232 -34.3761,3.9738 -5.3817,2.5388 -9.7974,10.0144 -4.6275,15.4234 4.8395,5.0582 21.4765,9.4339 35.0371,6.4679 11.4163,-2.494 24.2649,-1.6838 37.0203,-3.9738 8.2973,-1.4927 27.0872,-5.2305 38.012,-3.2403 14.6538,3.3168 29.3077,6.64 43.9616,9.9569 7.0515,0.5868 14.1029,1.1609 21.146,1.7413 29.0365,4.1972 91.5047,-8.3023 135.7658,-17.489 35.5084,-7.3701 45.4299,-13.4553 103.077,-29.9706 23.9191,-28.6656 41.5035,-78.1624 4.2972,-126.6794 -36.24,-47.2569 -15.5216,-35.6935 -59.7337,-29.1531 -25.9678,9.2035 -3.7982,-2.0243 -37.8726,21.7386 z"
           id="path4327"
           sodipodi:nodetypes="cccccccccccccccccccccccccccccccccccccccccccccccccccccccccacscc" />
        <path
           id="path4102"
           d="m 2334.4686,2088.2221 c -12.3279,0.095 -22.7879,0.8221 -30,1.75 -13.1858,1.6965 -26.8369,6.5943 -38.875,13.0938 -25.7834,13.9207 -31.4586,28.3746 -69.1875,54.25 0,0 -28.0579,22.4466 -123.4687,40.4062 -95.4107,17.9597 -110,131.3438 -110,131.3438 0,0 20.8365,-14.1278 37.0312,-34.8125 11.8447,-15.1286 87.5742,-53.8725 106.6562,-52.75 19.0823,1.1224 40.3927,14.5725 48.25,19.0625 19.6367,10.3767 44.6841,8.3445 62.5313,14.625 16.1525,3.4631 110.2566,-38.6464 154.9687,84.7812 13.5343,37.3616 32.1648,-63.7954 6.9688,-113.6562 -40.7649,-78.5236 134.2473,-71.0879 95.4375,-117.0625 -27.3604,-32.4116 -90.9217,-40.707 -134.9063,-41.0313 -1.8327,-0.014 -3.6451,-0.014 -5.4062,0 z m -59.3125,40.5 c 0,0 -1.6073,18.9572 -10.25,23.25 -8.4183,4.1813 -37.5,8.375 -37.5,8.375 0,0 23.5229,-11.4817 30.375,-18.5 7.404,-7.5836 17.375,-13.125 17.375,-13.125 z"
           style="fill:#e6e6e6;fill-opacity:1;stroke:none;display:inline"
           inkscape:connector-curvature="0" />
      </g>
      <path
         style="fill:#e6e6e6;fill-opacity:1;stroke:none;display:inline"
         d="m 1622.5268,1574.5527 c 0,0 -154,-17 -174,-93 -20,-76 -140.8873,-212.9289 -140.8873,-212.9289 l 119.7195,-34.8645 155.0673,-5.4787 c 0,0 -29.2465,19.7442 -44.57,78.1171 -3.3364,12.7096 -16.3878,84.8372 -15.6726,96.9956 4,68 20.3431,118.1594 52.3431,134.1594 32,16 48,37 48,37 z"
         id="path4009"
         inkscape:connector-curvature="0"
         sodipodi:nodetypes="cscccsssc" />
      <path
         sodipodi:nodetypes="cscccssssc"
         inkscape:connector-curvature="0"
         id="path4011"
         d="m 1778.8214,1577.7954 c 0,0 158,-16 178,-92 20,-76 132,-210 132,-210 l -137.9874,-46.5468 -127.9121,3.2747 c 0,0 29.2464,19.7442 44.5699,78.117 3.3364,12.7096 16.3879,84.8373 15.6727,96.9957 -2.8506,48.4603 -5.3989,54.4899 -21.9863,78.9223 -6.6882,9.8514 -30.6616,49.1395 -39.8568,53.7371 -32,16 -42.5,37.5 -42.5,37.5 z"
         style="fill:#e6e6e6;fill-opacity:1;stroke:none;display:inline" />
      <g
         id="g4233"
         style="fill:#e6e6e6;fill-opacity:1">
        <path
           sodipodi:nodetypes="sscccccssccsccccscsscccsccscsscsscccccsccccccsccssscssssscssssscsccccsccccccccccsccccccccccccccccccccccccccccsccccccccccccccccccccccccccccccccccccccccccccccccccccccccccccccscccscccsccccccccsccc"
           inkscape:connector-curvature="0"
           id="path4094"
           d="m 1680.6083,1056.0473 c -12.5825,0.2374 -28.125,2.6229 -28.125,5.9375 0,5.6568 18.375,115.9687 18.375,115.9687 l -14.125,2.8125 -7.0625,8.5 -18.4063,-4.25 -25.4375,25.4375 c 0,0 9.8983,7.0693 11.3125,16.9688 1.4142,9.8994 7.0558,25.4687 -2.8437,25.4687 -9.8995,0 -31.0938,2.8438 -31.0938,2.8438 l -12.75,35.3437 c 0,0 -9.0777,8.0798 -9.375,9.4688 -0.5953,2.7817 -7.8437,37.6875 -7.8437,37.6875 l 2.6562,9.6562 -6.3125,33.2813 -4.6562,4.1875 c 0,0 -8.3915,51.3897 0.094,59.875 8.4853,8.4852 22.625,15.5312 22.625,15.5312 0,0 4.2193,19.8272 -1.4375,28.3125 -5.6569,8.4853 33.9687,18.3812 33.9687,33.9375 0,15.5564 55.1563,49.5 55.1563,49.5 l 41.125,10.375 40.375,-4 c 0,0 24.5533,-38.8989 37.2812,-34.6562 12.728,4.2426 32.5313,-11.3438 32.5313,-11.3438 l 1.4063,-46.6562 c 0,0 15.5545,-11.304 16.9687,-18.375 1.4142,-7.0711 4.9688,-9.5 4.9688,-9.5 0,0 3.5312,-10.296 3.5312,-18.7813 0,-6.0057 13.2687,-45.2973 15.2188,-51.0625 2.373,-7.0155 3.5312,-37.3437 3.5312,-37.3437 0,0 -25.753,-19.0316 -21.5937,-24.75 2.8312,-3.8926 -4.0279,-25.9139 -5.6563,-31.4688 -1.0919,-3.7248 -1.9174,4.5457 -5.6562,-1.0625 l -19.0938,-26.8437 -11.3125,0 -19.0937,-28.3125 15.5625,-28.2813 c 0,0 -12.7188,-25.4295 -12.7188,-26.8437 0,-1.4143 -16.9687,-1.4375 -16.9687,-1.4375 l -9.9063,-9.875 -12.875,-4.5938 -9.75,11.6563 -8.5,2.8125 -11.3125,-4.2188 c 0,0 -8.4767,-113.1556 -7.0625,-118.8125 0.5304,-2.1213 -5.5022,-3.0606 -13.25,-3.0937 -0.807,0 -1.6299,-0.016 -2.4687,0 z m -40.4063,292 c 8.4433,0.351 18.3281,8.2187 23.8125,10.75 6.5,3 5,13 2,17 -4.2107,5.6142 -16.5,10 -16.5,10 0,0 -15.5,2 -21.5,0.5 -6,-1.5 -9.5,-10.5 -12,-15.5 -2.5,-5.0001 7.5,-15.5 13,-21.5 0.8594,-0.9375 9.624,-1.315 11.1875,-1.25 z m 124.9688,0.9687 c 0.338,10e-4 0.6386,0.013 0.9375,0.031 7.8993,0.4816 12.7261,7.7923 16.9687,14.1563 4.2427,6.3639 -9.9093,21.2107 -17.6875,22.625 -3.782,0.6876 -14.8684,1.5738 -20.4062,-2.3125 -5.8514,-4.1064 -11.0352,-9.5781 -12.125,-13.9375 -1.0593,-4.2371 6.1841,-10.7802 12.2812,-14.8438 5.7311,-3.8196 20.0313,-10.7894 20.0313,-5.7187 z m -121.1875,103.4688 c 2.1539,-0.023 4.6156,-0.01 7.0937,0 l -2.25,25 -8.2187,-0.4063 -1.1875,-24.5 c 1.4236,-0.039 2.9203,-0.076 4.5625,-0.094 z m 7.9687,0 c 0.3655,0 0.6598,0 1.0313,0 3.5919,0.023 7.5318,0.084 11.5937,0.1562 l -1.75,25.6875 -10.6562,-0.4062 z m -13.0937,0.094 -0.6875,24.5 -10.6563,-0.8125 0.625,-22.2813 c 0.1903,-0.103 0.3725,-0.2146 0.5625,-0.3125 1.1234,-0.5785 4.7919,-0.9306 10.1563,-1.0937 z m 26.5,0.062 c 3.7601,0.069 7.7645,0.1838 11.7812,0.2812 l 0,25.8125 -11.5625,-0.8125 z m 12.5937,0.2812 c 4.3362,0.1064 8.5607,0.2196 13.0313,0.3438 l -0.4375,24.6562 -10.3438,0.4063 z m 13.75,0.375 c 4.7952,0.1337 9.3738,0.2392 14.125,0.375 l -0.6562,25.0625 -12.1875,-0.8125 z m 71.4375,0.3125 c 0.094,0.025 0.1873,0.065 0.2813,0.094 l -1.3125,26.6563 -11.25,0 -0.8125,-25.75 c 8.0296,-0.015 13.0937,-0.2886 13.0937,-1 z m -56.5625,0.094 c 4.8381,0.1382 9.8296,0.2858 14.4063,0.4063 l -1.8125,23.8125 -11.25,0.4062 z m 57.75,0.3438 c 2.4647,1.048 4.6187,3.1875 5.6875,5.5937 2.4057,5.4156 2.324,12.5053 2.7215,18.7589 l -7.742,2.2794 z m -42,0.094 c 4.3051,0.1117 8.222,0.2037 12.0938,0.2812 l -0.625,24.7188 -10.6563,-0.8125 z m -94.7812,0.1562 -1.875,22.375 -6.1563,-2.9062 c 0.4792,-5.5525 -1.1777,-7.7482 1.0313,-12.625 1.3378,-2.9537 4.1213,-5.2006 7,-6.8438 z m 107.9062,0.1563 c 5.0256,0.097 9.6622,0.1533 13.5625,0.1563 l -1.2187,24.5312 -10.6563,-0.4062 z m -115.875,24 6.4063,1.5 0.4687,26.125 c -3.0467,0.2595 -5.4977,-3.5896 -6.6875,-6.4375 -2.52,-6.0319 -0.391,-14.38 -0.1875,-21.1875 z m 18.9063,1.9063 0.2187,24.4687 c -4.0591,0.3412 -7.9623,0.7362 -11.6875,1.1875 l 1.7188,-25.25 z m 27.0937,0 10.9688,0.8125 1.5625,21.9375 c -4.5149,0.056 -9.0063,0.1382 -13.4688,0.2812 z m -24.6875,0.8125 7.3125,0.8125 2.0313,22.0625 c -3.7085,0.2137 -7.3792,0.4281 -10.9063,0.7187 z m 11.5938,0.4062 9.75,0.4063 1.5937,21.4375 c -3.9447,0.1314 -7.8579,0.2938 -11.6875,0.5 0.1031,-7.9472 0.1708,-17.3282 0.3438,-22.3438 z m 38.0625,0.4063 1.4687,21.0625 c -4.2782,-0.025 -8.5851,0.015 -12.9062,0.062 l 0.1875,-20.7188 z m 29.5312,0 1.6563,21.8125 c -4.5064,-0.2033 -9.1676,-0.3439 -14,-0.4688 l 1.0937,-20.9375 z m -27.4062,0.4062 11.5937,0 2.1875,20.9063 c -4.5038,-0.109 -9.1184,-0.1873 -13.7812,-0.2188 z m 30.4687,0.8438 12.7813,1.2187 1.7812,20.2813 c -4.7228,-0.3467 -9.8212,-0.6556 -15.25,-0.9063 z m 15.5313,0 8.8437,0.8125 2.5938,21.7812 c -3.475,-0.3829 -7.3968,-0.7114 -11.6563,-1.0312 z m 34.0965,-0.4679 c -0.3208,6.3855 -0.2839,13.1183 -3.3465,18.3741 -0.7924,1.3598 -1.9735,2.6846 -3.3438,3.75 l 0,-20.4375 c 2.7541,-0.3522 3.941,-1.5355 6.6903,-1.6866 z m -21.3153,1.2804 12.1875,0.4062 0.3778,20.1625 c -1.9444,1.3824 -4.2073,2.212 -6.3438,1.8438 -2.3008,-0.3965 -3.5676,-0.15 -6.6902,-0.5063 z"
           style="fill:#e6e6e6;fill-opacity:1;stroke:none;display:inline" />
        <path
           sodipodi:nodetypes="csssccsssc"
           inkscape:connector-curvature="0"
           id="path3973"
           d="m 1666.1536,1082.8951 c 0,0 -13.9755,-47.6929 -18.395,-32.7774 -3.8584,13.0223 -1.1485,35.0429 -0.2947,52.4526 1.3688,27.9098 -6.43,36.35 -19.494,35.4791 -16.7923,-1.1195 -26.4952,92.5822 -29.81,131.6865 10.7343,-2.7984 4.4683,-94.0631 26.3051,-122.4763 2.7596,-3.3331 10.1768,-4.1705 14.9596,-7.3896 3.9151,-2.6349 10.284,-6.2825 11.4898,-31.7617 0.7025,-14.8441 -4.3113,-47.8665 0.1815,-54.489 3.8452,-5.668 5.9759,16.371 5.9759,16.371"
           style="fill:#e6e6e6;fill-opacity:1;stroke:none;display:inline" />
        <path
           sodipodi:nodetypes="csssccsssc"
           inkscape:connector-curvature="0"
           id="path3973-4"
           d="m 1681.0062,1063.7926 c 0,0 -27.3594,-36.6303 -26.3626,-21.1058 0.8704,13.5539 8.8001,29.9736 15.6068,46.0203 10.9121,25.7246 6.5034,36.3369 -6.0592,40.0258 -16.1478,4.7416 7.0666,96.0392 17.444,133.8868 9.1102,-6.3293 -28.2524,-89.8311 -17.5568,-124.0329 1.4405,-4.0804 8.1136,-7.4249 11.4924,-12.0962 2.766,-3.8237 7.4857,-9.4443 -0.1713,-33.7756 -4.461,-14.1754 -18.3483,-39.2983 -16.4156,-47.0641 1.6541,-6.6465 9.0465,9.1616 9.0465,9.1616"
           style="opacity:0.98999999;fill:#e6e6e6;fill-opacity:1;stroke:none;display:inline" />
        <path
           sodipodi:nodetypes="csssccsssc"
           inkscape:connector-curvature="0"
           id="path3973-7"
           d="m 1689.1042,1066.7912 c 0,0 8.6746,-26.9859 12.4059,-14.3927 3.2577,10.9947 4.0947,16.3055 3.3739,31.0045 -1.1557,23.5644 2.3038,36.5498 13.3338,35.8145 14.1778,-0.9452 5.5731,75.0424 8.3718,108.0583 -9.063,-2.3627 8.7274,-77.074 -9.7095,-101.0634 -2.3299,-2.8141 -6.6392,-5.8648 -10.6773,-8.5827 -3.3056,-2.2247 -3.214,-8.0388 -4.2321,-29.5509 -0.5931,-12.5329 1.6869,-26.7419 -2.1063,-32.3333 -3.2466,-4.7855 -3.0924,0.1502 -3.0924,0.1502"
           style="opacity:0.98999999;fill:#e6e6e6;fill-opacity:1;stroke:none;display:inline" />
        <path
           sodipodi:nodetypes="cssccassc"
           inkscape:connector-curvature="0"
           id="path3973-4-0"
           d="m 1676.6381,1066.3879 c 0,0 -21.6839,-34.2414 -22.3048,-18.8476 -0.542,13.4398 2.6494,37.9711 1.3185,55.6537 -4.2844,56.9225 -10.7082,80.932 -4.7623,144.6891 6.5507,-3.8003 2.8493,-26.8466 1.9694,-59.4543 1.2896,-3.6032 3.3295,-38.9992 4.2966,-58.5416 0.9752,-19.7049 4.5773,-33.4557 1.517,-59.1677 -1.783,-14.9798 -0.4376,-12.119 1.4818,-19.1869 1.6428,-6.0492 5.2737,6.201 5.2737,6.201"
           style="opacity:0.98999999;fill:#e6e6e6;fill-opacity:1;stroke:none;display:inline" />
        <path
           sodipodi:nodetypes="csssccsssc"
           inkscape:connector-curvature="0"
           id="path3973-4-1"
           d="m 1666.0664,1077.234 c 0,0 9.0609,-48.9551 15.1606,-34.6137 5.3252,12.5212 4.9454,34.712 5.9548,52.1143 1.6182,27.898 10.4539,35.4295 23.6367,33.1238 16.9452,-2.9639 36.9091,89.1222 44.494,127.6332 -11.2108,-1.599 -14.6829,-93.0224 -39.9389,-118.8631 -3.1639,-3.0094 -10.7922,-3.0245 -15.9999,-5.6976 -4.263,-2.1881 -11.129,-5.1125 -15.1014,-30.3102 -2.3145,-14.6802 -0.7796,-48.0626 -6.0596,-54.1514 -4.5189,-5.2111 -4.308,16.9343 -4.308,16.9343"
           style="opacity:0.98999999;fill:#e6e6e6;fill-opacity:1;stroke:none;display:inline" />
        <path
           sodipodi:nodetypes="cssccassc"
           inkscape:connector-curvature="0"
           id="path3973-4-0-5"
           d="m 1675.943,1066.5365 c 0,0 16.1347,-39.8269 19.6981,-23.886 3.1109,13.9174 4.4281,40.1124 9.1656,58.3063 15.2508,58.5688 26.4995,82.3982 32.3728,150.0343 -7.5534,-2.7236 -8.0572,-27.466 -13.3154,-61.6483 -2.0277,-3.5145 -10.8599,-40.0524 -15.5702,-60.2554 -4.7495,-20.3709 -11.1116,-34.0333 -12.7891,-61.4351 -0.9773,-15.9642 -1.8389,-12.7251 -5.1799,-19.7346 -2.8595,-5.9993 -4.3269,7.4676 -4.3269,7.4676"
           style="opacity:0.98999999;fill:#e6e6e6;fill-opacity:1;stroke:none;display:inline" />
        <path
           sodipodi:nodetypes="cssccassc"
           inkscape:connector-curvature="0"
           id="path3973-4-0-5-7"
           d="m 1680.2843,1068.3469 c 0,0 -15.0139,-41.7312 -18.3297,-25.0281 -2.8948,14.5828 -4.1206,42.0303 -8.5289,61.0942 -14.1916,61.3692 -24.6589,86.338 -30.1242,157.2081 7.0287,-2.8539 7.4976,-28.7794 12.3904,-64.5961 1.8869,-3.6824 10.1055,-41.9673 14.4886,-63.1364 4.4197,-21.345 10.3399,-35.6606 11.9009,-64.3726 0.9094,-16.7276 1.7111,-13.3336 4.82,-20.6781 2.6609,-6.2863 4.0264,7.8246 4.0264,7.8246"
           style="opacity:0.98999999;fill:#e6e6e6;fill-opacity:1;stroke:none;display:inline" />
      </g>
    </g>
    <rect
       style="opacity:0;fill:#b8b7b8;fill-opacity:0.99215686;fill-rule:nonzero;stroke:none;display:inline"
       id="rect3237"
       width="171.51941"
       height="76.137886"
       x="54.720482"
       y="-284.11292" />
  </g>
</svg>
