<?xml version="1.0" encoding="UTF-8" standalone="no"?>
<!-- Created with Inkscape (http://www.inkscape.org/) -->

<svg
   xmlns:osb="http://www.openswatchbook.org/uri/2009/osb"
   xmlns:dc="http://purl.org/dc/elements/1.1/"
   xmlns:cc="http://creativecommons.org/ns#"
   xmlns:rdf="http://www.w3.org/1999/02/22-rdf-syntax-ns#"
   xmlns:svg="http://www.w3.org/2000/svg"
   xmlns="http://www.w3.org/2000/svg"
   xmlns:xlink="http://www.w3.org/1999/xlink"
   xmlns:sodipodi="http://sodipodi.sourceforge.net/DTD/sodipodi-0.dtd"
   xmlns:inkscape="http://www.inkscape.org/namespaces/inkscape"
   width="2829.5283"
   height="529.86011"
   id="svg2"
   version="1.1"
   inkscape:version="0.48.5 r10040"
   inkscape:export-filename="/data/www/sebkha/squelettes/assets/title.png"
   inkscape:export-xdpi="13.33319"
   inkscape:export-ydpi="13.33319"
   sodipodi:docname="title.svg"
   style="enable-background:new">
  <defs
     id="defs4">
    <linearGradient
       id="linearGradient4955">
      <stop
         style="stop-color:#000000;stop-opacity:1;"
         offset="0"
         id="stop4957" />
      <stop
         style="stop-color:#91662e;stop-opacity:0;"
         offset="1"
         id="stop4959" />
    </linearGradient>
    <linearGradient
       id="linearGradient6162"
       osb:paint="solid">
      <stop
         style="stop-color:#000000;stop-opacity:1;"
         offset="0"
         id="stop6164" />
    </linearGradient>
    <linearGradient
       inkscape:collect="always"
       xlink:href="#linearGradient4955"
       id="linearGradient4985"
       x1="112.89386"
       y1="262.85001"
       x2="214.80011"
       y2="262.85001"
       gradientUnits="userSpaceOnUse" />
    <linearGradient
       inkscape:collect="always"
       xlink:href="#linearGradient4955"
       id="linearGradient4987"
       x1="330.98761"
       y1="262.86563"
       x2="428.26886"
       y2="262.86563"
       gradientUnits="userSpaceOnUse" />
    <linearGradient
       inkscape:collect="always"
       xlink:href="#linearGradient4955"
       id="linearGradient4989"
       x1="545.89386"
       y1="263.10315"
       x2="680.39386"
       y2="263.10315"
       gradientUnits="userSpaceOnUse" />
    <linearGradient
       inkscape:collect="always"
       xlink:href="#linearGradient4955"
       id="linearGradient4991"
       x1="798.83136"
       y1="262.86563"
       x2="951.11255"
       y2="262.86563"
       gradientUnits="userSpaceOnUse" />
    <linearGradient
       inkscape:collect="always"
       xlink:href="#linearGradient4955"
       id="linearGradient4993"
       x1="1087.0345"
       y1="262.86563"
       x2="1196.7533"
       y2="262.86563"
       gradientUnits="userSpaceOnUse" />
    <linearGradient
       inkscape:collect="always"
       xlink:href="#linearGradient4955"
       id="linearGradient4995"
       x1="1356.6127"
       y1="262.86563"
       x2="1480.3939"
       y2="262.86563"
       gradientUnits="userSpaceOnUse" />
    <linearGradient
       inkscape:collect="always"
       xlink:href="#linearGradient4955"
       id="linearGradient4997"
       x1="1564.0189"
       y1="269.45938"
       x2="1614.1127"
       y2="269.45938"
       gradientUnits="userSpaceOnUse" />
    <linearGradient
       inkscape:collect="always"
       xlink:href="#linearGradient4955"
       id="linearGradient4999"
       x1="1763.8864"
       y1="262.6774"
       x2="1862.8551"
       y2="262.6774"
       gradientUnits="userSpaceOnUse" />
    <linearGradient
       inkscape:collect="always"
       xlink:href="#linearGradient4955"
       id="linearGradient5001"
       x1="2015.2419"
       y1="263.04239"
       x2="2119.6169"
       y2="263.04239"
       gradientUnits="userSpaceOnUse" />
    <linearGradient
       inkscape:collect="always"
       xlink:href="#linearGradient4955"
       id="linearGradient5003"
       x1="2269.7063"
       y1="262.8656"
       x2="2372.2063"
       y2="262.8656"
       gradientUnits="userSpaceOnUse" />
    <linearGradient
       inkscape:collect="always"
       xlink:href="#linearGradient4955"
       id="linearGradient5005"
       x1="2494.8313"
       y1="262.86563"
       x2="2604.9563"
       y2="262.86563"
       gradientUnits="userSpaceOnUse" />
    <linearGradient
       inkscape:collect="always"
       xlink:href="#linearGradient4955"
       id="linearGradient5007"
       x1="2725.675"
       y1="262.85001"
       x2="2834.925"
       y2="262.85001"
       gradientUnits="userSpaceOnUse" />
    <linearGradient
       inkscape:collect="always"
       xlink:href="#linearGradient4955"
       id="linearGradient5011"
       gradientUnits="userSpaceOnUse"
       x1="2494.8313"
       y1="262.86563"
       x2="2604.9563"
       y2="262.86563"
       gradientTransform="translate(227.07367,0)" />
    <linearGradient
       inkscape:collect="always"
       xlink:href="#linearGradient4955"
       id="linearGradient5017"
       gradientUnits="userSpaceOnUse"
       x1="2380.8933"
       y1="267.82123"
       x2="2536.3281"
       y2="267.82123"
       gradientTransform="translate(217.30249,0)" />
  </defs>
  <sodipodi:namedview
     id="base"
     pagecolor="#ffffff"
     bordercolor="#666666"
     borderopacity="1.0"
     inkscape:pageopacity="0.0"
     inkscape:pageshadow="2"
     inkscape:zoom="1.8101934"
     inkscape:cx="1605.2243"
     inkscape:cy="384.56316"
     inkscape:document-units="px"
     inkscape:current-layer="layer1"
     showgrid="false"
     fit-margin-top="2"
     fit-margin-left="2"
     fit-margin-right="2"
     fit-margin-bottom="2"
     inkscape:object-paths="true"
     inkscape:window-width="1280"
     inkscape:window-height="933"
     inkscape:window-x="0"
     inkscape:window-y="31"
     inkscape:window-maximized="1" />
  <metadata
     id="metadata7">
    <rdf:RDF>
      <cc:Work
         rdf:about="">
        <dc:format>image/svg+xml</dc:format>
        <dc:type
           rdf:resource="http://purl.org/dc/dcmitype/StillImage" />
        <dc:title />
      </cc:Work>
    </rdf:RDF>
  </metadata>
  <g
     inkscape:label="Calque 1"
     inkscape:groupmode="layer"
     id="layer1"
     transform="translate(910.82859,-104.39713)"
     style="display:inline">
    <path
       inkscape:connector-curvature="0"
       id="path5768"
       style="font-size:700px;font-style:normal;font-variant:normal;font-weight:normal;font-stretch:normal;line-height:125%;letter-spacing:0px;word-spacing:0px;fill:#bf7d39;fill-opacity:1;stroke:none;font-family:League Gothic;-inkscape-font-specification:League Gothic"
       d="m -768.12859,250.04789 c 0,-16.79999 -0.7,-35.70002 -5.6,-50.4 -4.89999,-13.99999 -12.60001,-23.8 -24.5,-23.8 -19.59998,0.7 -25.9,21.00003 -25.9,51.1 0,17.49998 7.70001,35.70002 18.9,55.3 11.19999,19.59998 25.90002,39.90002 40.6,61.6 17.49998,25.89997 35.00001,52.50002 48.3,78.4 13.29999,25.89997 22.4,52.50003 22.4,80.5 0,34.29996 -5.60001,66.50002 -21.7,90.3 -16.09998,23.79997 -42.00004,39.2 -83.3,39.2 -48.29995,0 -75.60001,-18.20003 -91,-46.2 -15.39998,-27.99997 -18.9,-65.10004 -18.9,-103.6 l 74.2,-7 c 0,21.69998 0.70001,43.40001 6.3,59.5 4.9,16.79998 13.30002,28 29.4,28 22.39998,0 30.8,-23.80003 30.8,-56.7 0,-16.79999 -8.40001,-36.40002 -19.6,-56.7 -6.29999,-9.79999 -12.60001,-20.30001 -19.6,-30.8 -14.69998,-20.99998 -30.80002,-44.80003 -47.6,-70.7 -16.79998,-25.89998 -29.40001,-52.50003 -37.1,-79.8 -4.19999,-13.29999 -6.3,-27.30002 -6.3,-41.3 0,-27.99997 6.30002,-58.10002 22.4,-81.2 16.09999,-22.39998 40.60004,-38.5 76.3,-39.2 45.49996,-0.7 72.10002,18.20003 86.8,45.5 14.69999,27.99997 18.9,62.30003 18.9,91 l -74.2,7" />
    <path
       inkscape:connector-curvature="0"
       id="path5770"
       style="font-size:700px;font-style:normal;font-variant:normal;font-weight:normal;font-stretch:normal;line-height:125%;letter-spacing:0px;word-spacing:0px;fill:#bf7d39;fill-opacity:1;stroke:none;font-family:League Gothic;-inkscape-font-specification:League Gothic"
       d="m -653.33765,112.14789 172.9,0 0,77.7 -97.3,0 0,135.1 70,0 0,82.6 -70,0 0,141.4 97.3,0 0,77.7 -172.9,0 0,-514.5" />
    <path
       inkscape:connector-curvature="0"
       id="path5772"
       style="font-size:700px;font-style:normal;font-variant:normal;font-weight:normal;font-stretch:normal;line-height:125%;letter-spacing:0px;word-spacing:0px;fill:#bf7d39;fill-opacity:1;stroke:none;font-family:League Gothic;-inkscape-font-specification:League Gothic"
       d="m -438.33776,626.54833 0,-514.5 66.5,0 c 44.79995,0 79.80002,8.40002 102.9,30.1 23.09998,21.69998 35,55.30005 35,106.4 0,24.49997 -2.10001,42.70001 -9.8,59.5 -7.69999,16.79998 -19.60002,30.80001 -37.1,46.9 18.89998,10.49999 32.90001,30.10003 44.1,63 5.59999,16.09998 8.4,37.10002 8.4,63 0,38.49996 -7.00002,72.80002 -24.5,99.4 -17.49998,26.59997 -47.60005,44.1 -92.4,46.2 l -93.1,0 m 75.6,-302.4 c 6.29999,0 21.00001,0.69999 33.6,-7.7 12.59999,-8.39999 22.4,-25.20004 22.4,-60.9 0,-35.69997 -9.80001,-52.50001 -22.4,-60.9 -12.59999,-8.39999 -27.30001,-7.7 -33.6,-7.7 l 0,137.2 m 0,227.5 c 6.29999,0 21.00001,1.39999 33.6,-7.7 12.59999,-9.09999 22.4,-29.40004 22.4,-71.4 0,-41.99996 -9.80001,-62.30001 -22.4,-71.4 -12.59999,-9.09999 -27.30001,-7.7 -33.6,-7.7 l 0,158.2" />
    <path
       inkscape:connector-curvature="0"
       id="path5774"
       style="font-size:700px;font-style:normal;font-variant:normal;font-weight:normal;font-stretch:normal;line-height:125%;letter-spacing:0px;word-spacing:0px;fill:#bf7d39;fill-opacity:1;stroke:none;font-family:League Gothic;-inkscape-font-specification:League Gothic"
       d="m -108.02329,112.14789 0,179.9 2.8,0 3.5,-8.4 62.999999,-171.5 73.5,0 -69.3,169.4 78.4,345.1 -73.5,0 -52.5,-224 -2.1,-10.5 -2.1,0 -4.2,10.5 -17.499999,42 0,182 -75.6,0 0,-514.5 75.6,0" />
    <path
       inkscape:connector-curvature="0"
       id="path5776"
       style="font-size:700px;font-style:normal;font-variant:normal;font-weight:normal;font-stretch:normal;line-height:125%;letter-spacing:0px;word-spacing:0px;fill:#bf7d39;fill-opacity:1;stroke:none;font-family:League Gothic;-inkscape-font-specification:League Gothic"
       d="m 213.27671,402.64789 -58.8,0 0,224 -75.600001,0 0,-514.5 75.600001,0 0,212.8 58.8,0 0,-212.8 75.6,0 0,514.5 -75.6,0 0,-224" />
    <path
       inkscape:connector-curvature="0"
       id="path5778"
       style="font-size:700px;font-style:normal;font-variant:normal;font-weight:normal;font-stretch:normal;line-height:125%;letter-spacing:0px;word-spacing:0px;fill:#bf7d39;fill-opacity:1;stroke:none;font-family:League Gothic;-inkscape-font-specification:League Gothic"
       d="m 323.88013,626.64789 77.7,-514.5 92.4,0 77.7,514.5 -73.5,0 -14,-105 -72.8,0 -14,105 -73.5,0 m 128.1,-347.2 -2.1,-13.3 -4.2,0 -2.1,13.3 -21.7,162.4 51.8,0 -21.7,-162.4" />
    <path
       style="font-size:700px;font-style:normal;font-variant:normal;font-weight:normal;font-stretch:normal;line-height:125%;letter-spacing:0px;word-spacing:0px;fill:#bf7d39;fill-opacity:1;stroke:none;font-family:League Gothic;-inkscape-font-specification:League Gothic"
       sodipodi:nodetypes="ccccc"
       inkscape:connector-curvature="0"
       id="path5780"
       d="m 603.87517,342.74789 101.5,0 0,66.5 -101.5,0 0,-66.5" />
    <path
       inkscape:connector-curvature="0"
       id="path5782"
       style="font-size:700px;font-style:normal;font-variant:normal;font-weight:normal;font-stretch:normal;line-height:125%;letter-spacing:0px;word-spacing:0px;fill:#bf7d39;fill-opacity:1;stroke:none;font-family:League Gothic;-inkscape-font-specification:League Gothic"
       d="m 955.28252,450.24789 0,70.7 c -0.7,20.99998 -4.90001,39.90001 -12.6,56 -6.29999,13.99998 -16.10001,27.30001 -30.1,37.8 -13.99999,11.19999 -32.90003,17.5 -58.1,17.5 -25.19998,0 -44.80001,-6.30001 -58.8,-17.5 -13.99999,-10.49999 -23.10001,-23.80002 -29.4,-37.8 -7.69999,-16.09999 -11.9,-35.00002 -12.6,-56 l 0,-303.1 c 0.7,-20.29998 4.90001,-39.20002 12.6,-55.3 6.29999,-13.99999 15.40001,-28.00001 29.4,-38.5 13.99999,-10.49999 33.60002,-17.5 58.8,-17.5 25.19997,0 44.10001,7.00001 58.1,17.5 13.99999,10.49999 23.80001,24.50001 30.1,38.5 7.69999,16.09998 11.9,35.00002 12.6,55.3 l 0,70.7 -70.7,0 0,-70.7 c 0,-13.99999 -3.50001,-23.80001 -11.2,-32.2 -3.5,-3.5 -9.80001,-5.6 -17.5,-5.6 -13.29999,0 -19.6,9.80001 -23.1,18.9 -2.1,5.59999 -2.8,11.90001 -3.5,18.9 l 0,303.1 c 0.7,14.69998 4.90001,24.50001 11.9,32.2 3.5,3.49999 8.40001,5.6 14.7,5.6 16.09998,0 22.4,-8.40001 25.9,-18.9 2.1,-4.9 2.8,-11.20001 2.8,-18.9 l 0,-70.7 70.7,0" />
    <path
       inkscape:connector-curvature="0"
       id="path5784"
       style="font-size:700px;font-style:normal;font-variant:normal;font-weight:normal;font-stretch:normal;line-height:125%;letter-spacing:0px;word-spacing:0px;fill:#bf7d39;fill-opacity:1;stroke:none;font-family:League Gothic;-inkscape-font-specification:League Gothic"
       d="m 1135.1883,402.64789 -58.8,0 0,224 -75.6,0 0,-514.5 75.6,0 0,212.8 58.8,0 0,-212.8 75.6,0 0,514.5 -75.6,0 0,-224" />
    <path
       inkscape:connector-curvature="0"
       id="path5786"
       style="font-size:700px;font-style:normal;font-variant:normal;font-weight:normal;font-stretch:normal;line-height:125%;letter-spacing:0px;word-spacing:0px;fill:#bf7d39;fill-opacity:1;stroke:none;font-family:League Gothic;-inkscape-font-specification:League Gothic"
       d="m 1463.4916,520.94789 c -0.7,20.99998 -4.9,39.90001 -12.6,56 -6.3,13.99998 -16.1,27.30001 -30.1,37.8 -14,11.19999 -32.9,17.5 -58.1,17.5 -25.1999,0 -44.8,-6.30001 -58.8,-17.5 -14,-10.49999 -23.1,-23.80002 -29.4,-37.8 -7.7,-16.09999 -11.9,-35.00002 -12.6,-56 l 0,-303.1 c 0.7,-20.29998 4.9,-39.20002 12.6,-55.3 6.3,-13.99999 15.4,-28.00001 29.4,-38.5 14,-10.49999 33.6001,-17.5 58.8,-17.5 25.2,0 44.1,7.00001 58.1,17.5 14,10.49999 23.8,24.50001 30.1,38.5 7.7,16.09998 11.9,35.00002 12.6,55.3 l 0,303.1 m -75.6,-303.1 c 0,-13.99999 -2.8,-23.80001 -9.8,-32.2 -3.5,-3.5 -9.1,-5.6 -15.4,-5.6 -13.3,0 -19.6,9.80001 -22.4,18.9 -2.1,5.59999 -2.8,11.90001 -2.8,18.9 l 0,303.1 c 0,14.69998 3.5,24.50001 10.5,32.2 3.5,3.49999 8.4,5.6 14.7,5.6 13.3,0 19.6,-8.40001 22.4,-18.9 2.1,-4.9 2.8,-11.20001 2.8,-18.9 l 0,-303.1" />
    <path
       inkscape:connector-curvature="0"
       id="path5788"
       style="font-size:700px;font-style:normal;font-variant:normal;font-weight:normal;font-stretch:normal;line-height:125%;letter-spacing:0px;word-spacing:0px;fill:#bf7d39;fill-opacity:1;stroke:none;font-family:League Gothic;-inkscape-font-specification:League Gothic"
       d="m 1480.9956,189.84789 0,-77.7 218.4,0 0,77.7 -71.4,0 0,436.8 -75.6,0 0,-436.8 -71.4,0" />
    <path
       inkscape:connector-curvature="0"
       id="path5790"
       style="font-size:700px;font-style:normal;font-variant:normal;font-weight:normal;font-stretch:normal;line-height:125%;letter-spacing:0px;word-spacing:0px;fill:#bf7d39;fill-opacity:1;stroke:none;font-family:League Gothic;-inkscape-font-specification:League Gothic"
       d="m 1697.802,189.84789 0,-77.7 218.4,0 0,77.7 -71.4,0 0,436.8 -75.6,0 0,-436.8 -71.4,0" />
  </g>
  <g
     inkscape:groupmode="layer"
     id="layer2"
     inkscape:label="Calque"
     style="opacity:0.98999999"
     transform="translate(2,2.1507643)">
    <path
       inkscape:connector-curvature="0"
       style="font-size:700px;font-style:normal;font-variant:normal;font-weight:normal;font-stretch:normal;line-height:125%;letter-spacing:0px;word-spacing:0px;opacity:0.33496477;fill:url(#linearGradient4985);fill-opacity:1;stroke:none;display:inline;font-family:League Gothic;-inkscape-font-specification:League Gothic"
       d="m 112.89386,0.02187 0,69.4375 c 10.54682,1.23313 17.53152,10.62128 22.09375,23.65625 4.9,14.69998 5.59375,33.60626 5.59375,50.40625 l 74.21875,-7 c 0,-28.69997 -4.20626,-63.00003 -18.90625,-91 -14.28484,-26.529 -39.81692,-45.11314 -83,-45.5 z m 0,191.15625 0,139 c 2.73429,4.369 5.41337,8.67427 8.09375,12.84375 11.19999,20.29998 19.59375,39.88751 19.59375,56.6875 0,31.33271 -7.61279,54.40351 -27.6875,56.53125 l 0,69.4375 c 39.4949,-0.75686 64.4958,-15.95982 80.1875,-39.15625 16.09999,-23.79998 21.71875,-56.01254 21.71875,-90.3125 0,-27.99997 -9.10626,-54.60003 -22.40625,-80.5 -13.29999,-25.89998 -30.81252,-52.47503 -48.3125,-78.375 -10.87304,-16.05068 -21.73079,-31.35416 -31.1875,-46.15625 z"
       id="path5768-5" />
    <path
       inkscape:connector-curvature="0"
       style="font-size:700px;font-style:normal;font-variant:normal;font-weight:normal;font-stretch:normal;line-height:125%;letter-spacing:0px;word-spacing:0px;opacity:0.33496477;fill:url(#linearGradient4987);fill-opacity:1;stroke:none;display:inline;font-family:League Gothic;-inkscape-font-specification:League Gothic"
       d="m 330.98761,5.61562 0,77.71875 97.28125,0 0,-77.71875 -97.28125,0 z m 0,212.8125 0,82.59375 69.96875,0 0,-82.59375 -69.96875,0 z m 0,224 0,77.6875 97.28125,0 0,-77.6875 -97.28125,0 z"
       id="path5770-8" />
    <path
       inkscape:connector-curvature="0"
       style="font-size:700px;font-style:normal;font-variant:normal;font-weight:normal;font-stretch:normal;line-height:125%;letter-spacing:0px;word-spacing:0px;opacity:0.33496477;fill:url(#linearGradient4989);fill-opacity:1;stroke:none;display:inline;font-family:League Gothic;-inkscape-font-specification:League Gothic"
       d="m 545.89386,5.91566 0,514.375 17.5937,0 c 44.8,-2.1 74.9063,-19.58753 92.4063,-46.1875 17.5,-26.59998 24.5,-60.90629 24.5,-99.40625 0,-25.89998 -2.8063,-46.90002 -8.4063,-63 -11.1999,-32.89997 -25.1937,-52.50001 -44.0937,-63 17.5,-16.09999 29.3938,-30.10627 37.0937,-46.90625 7.7,-16.79999 9.8125,-35.00003 9.8125,-59.5 0,-51.09995 -11.9,-84.70627 -35,-106.40625 C 618.27166,15.6607 586.39426,7.00196 545.89386,5.91566 z m 2.8125,74.75 c 7.2064,-0.0191 19.85,0.36876 30.875,7.71875 12.6,8.39999 22.4062,25.20628 22.4062,60.90625 0,35.69996 -9.8062,52.50626 -22.4062,60.90625 -12.6,8.39999 -27.2938,7.6875 -33.5938,7.6875 l 0,-137.1875 c 0.7875,0 1.6893,-0.0285 2.7188,-0.0312 z m 3.4062,206.4375 c 7.3829,0.0328 18.0188,0.95626 27.4688,7.78125 12.6,9.09999 22.4062,29.40629 22.4062,71.40625 0,41.99996 -9.8062,62.30626 -22.4062,71.40625 -12.6,9.09999 -27.2938,7.6875 -33.5938,7.6875 l 0,-158.1875 c 1.575,0 3.6641,-0.10469 6.125,-0.0937 z"
       id="path5772-7" />
    <path
       inkscape:connector-curvature="0"
       style="font-size:700px;font-style:normal;font-variant:normal;font-weight:normal;font-stretch:normal;line-height:125%;letter-spacing:0px;word-spacing:0px;opacity:0.33496477;fill:url(#linearGradient4991);fill-opacity:1;stroke:none;display:inline;font-family:League Gothic;-inkscape-font-specification:League Gothic"
       d="m 798.83136,5.61562 0,514.5 0.375,0 0,-182 17.5,-42 4.1875,-10.5 2.0937,0 2.125,10.5 52.5,224 73.5,0 -78.4062,-345.09375 69.2812,-169.40625 -73.5,0 -63,171.5 -3.5,8.40625 -2.7812,0 0,-179.90625 -0.375,0 z"
       id="path5774-6" />
    <path
       inkscape:connector-curvature="0"
       style="font-size:700px;font-style:normal;font-variant:normal;font-weight:normal;font-stretch:normal;line-height:125%;letter-spacing:0px;word-spacing:0px;opacity:0.33496477;fill:url(#linearGradient4993);fill-opacity:1;stroke:none;display:inline;font-family:League Gothic;-inkscape-font-specification:League Gothic"
       d="m 1121.1283,5.61562 0,212.8125 -57.8204,-0.0156 0,77.6875 57.8204,0.0156 0,224 75.625,0 0,-514.5 z"
       id="path5776-2"
       sodipodi:nodetypes="ccccccccc" />
    <path
       inkscape:connector-curvature="0"
       style="font-size:700px;font-style:normal;font-variant:normal;font-weight:normal;font-stretch:normal;line-height:125%;letter-spacing:0px;word-spacing:0px;opacity:0.33496477;fill:url(#linearGradient4995);fill-opacity:1;stroke:none;display:inline;font-family:League Gothic;-inkscape-font-specification:League Gothic"
       d="m 1375.6265,5.5999957 -21.1202,154.0156243 4.1064,0 2.0937,13.3125 21.6875,162.40625 -51.6761,-0.10225 -10.5211,79.95802 72.6972,-0.0745 14,105 73.5,0 -77.6875,-514.5 z"
       id="path5778-7"
       sodipodi:nodetypes="cccccccccccc" />
    <path
       inkscape:connector-curvature="0"
       style="font-size:700px;font-style:normal;font-variant:normal;font-weight:normal;font-stretch:normal;line-height:125%;letter-spacing:0px;word-spacing:0px;opacity:0.33496477;fill:url(#linearGradient4997);fill-opacity:1;stroke:none;display:inline;font-family:League Gothic;-inkscape-font-specification:League Gothic"
       d="m 1564.0189,236.20937 0,66.5 50.0938,0 0,-66.5 -50.0938,0 z"
       id="path5780-4" />
    <path
       inkscape:connector-curvature="0"
       style="font-size:700px;font-style:normal;font-variant:normal;font-weight:normal;font-stretch:normal;line-height:125%;letter-spacing:0px;word-spacing:0px;opacity:0.33496477;fill:url(#linearGradient4999);fill-opacity:1;stroke:none;display:inline;font-family:League Gothic;-inkscape-font-specification:League Gothic"
       d="m 1763.8863,-0.15076428 0,73.46875028 c 0.1991,-0.005 0.3914,0 0.5938,0 7.6999,0 14,2.09375 17.5,5.59375 7.6999,8.39999 11.1874,18.21876 11.1874,32.218754 l 0,70.6875 69.6876,0 0,-84.218754 c -1.7662,-15.16792 -5.6337,-29.31925 -11.5938,-41.78125 -6.3,-13.99999 -16.0938,-28.00001 -30.0938,-38.5 -13.8472,-10.3854303 -32.492,-17.31809028066 -57.2812,-17.46875028 z m 29.2812,343.65625428 0,70.71875 c 10e-5,7.69999 -0.6812,14.00625 -2.7812,18.90625 -3.5,10.49999 -9.8063,18.875 -25.9062,18.875 -0.2023,0 -0.3944,-0.0269 -0.5938,-0.0312 l 0,73.53125 c 24.7895,-0.13573 43.4339,-6.42214 57.2812,-17.5 14,-10.49999 23.7938,-23.78127 30.0938,-37.78125 5.9595,-12.46074 9.8274,-26.60306 11.5938,-42.09375 l 0,-84.625 -69.6876,0 z"
       id="path5782-5" />
    <path
       inkscape:connector-curvature="0"
       style="font-size:700px;font-style:normal;font-variant:normal;font-weight:normal;font-stretch:normal;line-height:125%;letter-spacing:0px;word-spacing:0px;opacity:0.33496477;fill:url(#linearGradient5001);fill-opacity:1;stroke:none;display:inline;font-family:League Gothic;-inkscape-font-specification:League Gothic"
       d="m 2044.0231,5.7923967 0,212.8125033 -58.4797,-0.1924 0,77.6875 58.4797,0.1924 0,224 75.5938,0 0,-514.5000033 z"
       id="path5784-2"
       sodipodi:nodetypes="ccccccccc" />
    <path
       inkscape:connector-curvature="0"
       style="font-size:700px;font-style:normal;font-variant:normal;font-weight:normal;font-stretch:normal;line-height:125%;letter-spacing:0px;word-spacing:0px;opacity:0.33496477;fill:url(#linearGradient5003);fill-opacity:1;stroke:none;display:inline;font-family:League Gothic;-inkscape-font-specification:League Gothic"
       d="m 2271.4251,0.02192 c -0.5813,0 -1.1433,0.0238 -1.7187,0.0312 l 0,73.53125 c 0.5532,-0.0363 1.1392,-0.0625 1.7187,-0.0625 6.3,0 11.875,2.09375 15.375,5.59375 7.0001,8.39999 9.8126,18.21876 9.8126,32.21875 l 0,303.09375 c -1e-4,7.69999 -0.7126,14.00625 -2.8126,18.90625 -2.7999,10.49999 -9.075,18.875 -22.375,18.875 -0.5852,0 -1.1577,-0.0268 -1.7187,-0.0625 l 0,73.53125 c 0.5754,0.007 1.1373,0.0312 1.7187,0.0312 25.2001,0 44.0938,-6.30001 58.0938,-17.5 14,-10.49999 23.7938,-23.78127 30.0938,-37.78125 7.6999,-16.09999 11.8937,-35.00002 12.5937,-56 l 0,-303.09375 c -0.7,-20.29993 -4.8937,-39.21247 -12.5937,-55.31245 -6.3,-13.99999 -16.0938,-28.00001 -30.0938,-38.5 -14,-10.49999 -32.8937,-17.5 -58.0938,-17.5 z"
       id="path5786-9" />
    <path
       sodipodi:nodetypes="cccccccccc"
       id="path5015"
       d="m 2677.7436,4.0375 -81.25,1.5624957 0,77.7000003 81.25,-1.562496 0.287,436.8 75.6001,1.5625 -1e-4,-436.8 71.8878,0 0.01,-77.6375 z"
       style="font-size:700px;font-style:normal;font-variant:normal;font-weight:normal;font-stretch:normal;line-height:125%;letter-spacing:0px;word-spacing:0px;opacity:0.33496477;fill:url(#linearGradient5017);fill-opacity:1;stroke:none;display:inline;font-family:League Gothic;-inkscape-font-specification:League Gothic"
       inkscape:connector-curvature="0" />
  </g>
</svg>
